<svg width="32" height="31" viewBox="0 0 32 31" fill="none" xmlns="http://www.w3.org/2000/svg">
<path d="M28 8.66667C25.7333 8.66667 24 10.4 24 12.6667V12.9333L21.3333 13.8667C20.5333 12.2667 18.9333 11.0667 17.0667 10.8V7.86667C18.6667 7.46667 20 5.86667 20 4C20 1.73333 18.2667 0 16 0C13.7333 0 12 1.73333 12 4C12 5.86667 13.3333 7.46667 14.9333 7.86667V10.8C13.2 11.0667 11.6 12.2667 10.6667 13.8667L8 12.9333V12.6667C8 10.4 6.26667 8.66667 4 8.66667C1.73333 8.66667 0 10.4 0 12.6667C0 14.9333 1.73333 16.6667 4 16.6667C5.46667 16.6667 6.66667 15.8667 7.33333 14.8L10 15.7333C9.73333 17.4667 10.2667 19.3333 11.4667 20.6667L9.6 23.0667C9.06667 22.8 8.53333 22.6667 8 22.6667C5.73333 22.6667 4 24.4 4 26.6667C4 28.9333 5.73333 30.6667 8 30.6667C10.2667 30.6667 12 28.9333 12 26.6667C12 25.7333 11.7333 24.9333 11.2 24.2667L13.0667 21.8667C14.9333 22.9333 17.0667 22.9333 18.9333 21.8667L20.8 24.2667C20.2667 24.9333 20 25.7333 20 26.6667C20 28.9333 21.7333 30.6667 24 30.6667C26.2667 30.6667 28 28.9333 28 26.6667C28 24.4 26.2667 22.6667 24 22.6667C23.4667 22.6667 22.8 22.8 22.4 23.0667L20.5333 20.6667C21.7333 19.3333 22.2667 17.4667 22 15.7333L24.6667 14.8C25.3333 15.8667 26.6667 16.6667 28 16.6667C30.2667 16.6667 32 14.9333 32 12.6667C32 10.4 30.2667 8.66667 28 8.66667ZM4 14C3.33333 14 2.66667 13.4667 2.66667 12.6667C2.66667 11.8667 3.33333 11.3333 4 11.3333C4.66667 11.3333 5.33333 11.8667 5.33333 12.6667C5.33333 13.4667 4.66667 14 4 14ZM8 28C7.2 28 6.66667 27.3333 6.66667 26.6667C6.66667 26 7.2 25.3333 8 25.3333C8.8 25.3333 9.33333 26 9.33333 26.6667C9.33333 27.3333 8.8 28 8 28ZM14.6667 4C14.6667 3.33333 15.2 2.66667 16 2.66667C16.8 2.66667 17.3333 3.33333 17.3333 4C17.3333 4.66667 16.8 5.33333 16 5.33333C15.2 5.33333 14.6667 4.66667 14.6667 4ZM16 20C14.1333 20 12.6667 18.5333 12.6667 16.6667C12.6667 14.8 14.1333 13.3333 16 13.3333C17.8667 13.3333 19.3333 14.8 19.3333 16.6667C19.3333 18.5333 17.8667 20 16 20ZM24 25.3333C24.6667 25.3333 25.3333 26 25.3333 26.6667C25.3333 27.3333 24.6667 28 24 28C23.3333 28 22.6667 27.3333 22.6667 26.6667C22.6667 26 23.3333 25.3333 24 25.3333ZM28 14C27.3333 14 26.6667 13.4667 26.6667 12.6667C26.6667 11.8667 27.3333 11.3333 28 11.3333C28.6667 11.3333 29.3333 11.8667 29.3333 12.6667C29.3333 13.4667 28.6667 14 28 14Z" fill="#23CB8D"/>
</svg>
