<svg width="23" height="27" viewBox="0 0 23 27" fill="none" xmlns="http://www.w3.org/2000/svg">
<path d="M20.4119 9.36133C19.8099 9.36133 19.0125 9.348 18.0198 9.348C15.5987 9.348 13.6079 7.344 13.6079 4.9V0.612C13.6079 0.274667 13.3373 0 13.0033 0H5.95248C2.66139 0 0 2.70133 0 6.012V20.3787C0 23.852 2.78812 26.6667 6.22706 26.6667H16.7274C20.0079 26.6667 22.6667 23.9827 22.6667 20.6693V9.96133C22.6667 9.62267 22.3974 9.34933 22.062 9.35067C21.4984 9.35467 20.8224 9.36133 20.4119 9.36133Z" fill="#23CB8D"/>
<path d="M16.7792 0.757144C16.3806 0.342477 15.6846 0.627811 15.6846 1.20248V4.71848C15.6846 6.19314 16.8979 7.40648 18.3726 7.40648C19.3032 7.41714 20.5939 7.41981 21.6899 7.41714C22.2512 7.41581 22.5366 6.74514 22.1472 6.33981C20.7406 4.87714 18.2219 2.25581 16.7792 0.757144Z" fill="#23CB8D"/>
<path d="M15.4737 14.2778C15.0843 13.8925 14.4577 13.8898 14.0683 14.2805L11.9497 16.4098V9.9738C11.9497 9.4258 11.5043 8.98047 10.9563 8.98047C10.4083 8.98047 9.96299 9.4258 9.96299 9.9738V16.4098L7.84299 14.2805C7.45499 13.8898 6.82699 13.8925 6.43899 14.2778C6.04965 14.6645 6.04965 15.2925 6.43499 15.6818L10.2523 19.5165H10.2537C10.3443 19.6071 10.4523 19.6805 10.5737 19.7311C10.6937 19.7805 10.8243 19.8071 10.9563 19.8071C11.0897 19.8071 11.2203 19.7805 11.3403 19.7298C11.459 19.6805 11.567 19.6071 11.6577 19.5178L11.6603 19.5165L15.4763 15.6818C15.863 15.2925 15.863 14.6645 15.4737 14.2778Z" fill="#F7F7F7"/>
</svg>
