<svg width="183" height="61" viewBox="0 0 183 61" fill="none" xmlns="http://www.w3.org/2000/svg">
<path d="M177.355 39.3744C175.779 39.3744 174.608 38.9609 173.84 38.1338C173.072 37.3068 172.688 36.2533 172.688 34.9734V27.5302H168.553V24.1335H171.241C171.89 24.1335 172.353 24.0055 172.629 23.7495C172.904 23.4935 173.042 23.0209 173.042 22.3317V18.7578H177.059V24.1335H182.996V27.5302H177.059V35.9777H182.996V39.3744H177.355Z" fill="#003C51"/>
<path d="M151.521 39.3844V24.1435H155.893V26.9199H156.07C156.247 26.4867 156.464 26.0831 156.72 25.7089C156.976 25.3348 157.281 25.0099 157.636 24.7342C158.01 24.4389 158.433 24.2124 158.906 24.0549C159.398 23.8777 159.949 23.7891 160.56 23.7891C161.288 23.7891 161.958 23.9171 162.568 24.173C163.179 24.4093 163.7 24.7736 164.134 25.2659C164.567 25.7582 164.902 26.3587 165.138 27.0676C165.394 27.7765 165.522 28.5937 165.522 29.5192V39.3844H161.15V30.1099C161.15 28.1408 160.294 27.1562 158.581 27.1562C158.246 27.1562 157.911 27.2055 157.576 27.3039C157.261 27.3827 156.976 27.5205 156.72 27.7174C156.464 27.8947 156.257 28.1211 156.1 28.3968C155.962 28.6725 155.893 28.9974 155.893 29.3715V39.3844H151.521Z" fill="#003C51"/>
<path d="M146.278 39.3844C145.372 39.3844 144.644 39.158 144.092 38.7051C143.541 38.2325 143.216 37.563 143.118 36.6966H142.97C142.694 37.7008 142.143 38.4589 141.316 38.9709C140.509 39.4829 139.514 39.7388 138.333 39.7388C136.856 39.7388 135.665 39.345 134.759 38.5574C133.873 37.75 133.43 36.6277 133.43 35.1902C133.43 33.5952 134.011 32.4138 135.172 31.6458C136.334 30.8779 138.037 30.4939 140.282 30.4939H142.734V29.7259C142.734 28.8201 142.517 28.1408 142.084 27.6879C141.67 27.2153 140.962 26.979 139.957 26.979C139.032 26.979 138.284 27.1562 137.712 27.5107C137.141 27.8651 136.649 28.3279 136.236 28.8989L133.843 26.7723C134.355 25.9059 135.153 25.197 136.236 24.6456C137.338 24.0746 138.746 23.7891 140.459 23.7891C142.547 23.7891 144.171 24.2715 145.333 25.2364C146.514 26.1815 147.105 27.619 147.105 29.5487V36.224H148.789V39.3844H146.278ZM139.987 36.8738C140.755 36.8738 141.405 36.6867 141.936 36.3126C142.468 35.9385 142.734 35.397 142.734 34.6881V32.8568H140.4C138.608 32.8568 137.712 33.4574 137.712 34.6585V35.2493C137.712 35.7809 137.919 36.1846 138.333 36.4603C138.746 36.736 139.298 36.8738 139.987 36.8738Z" fill="#003C51"/>
<path d="M116.189 35.9877H120.856V20.9241H116.189V17.5273H125.228V35.9877H129.894V39.3845H116.189V35.9877Z" fill="#003C51"/>
<path d="M106.28 22.1909C105.295 22.1909 104.606 21.994 104.212 21.6002C103.838 21.1867 103.651 20.6944 103.651 20.1233V19.2668C103.651 18.6761 103.838 18.1838 104.212 17.79C104.606 17.3961 105.295 17.1992 106.28 17.1992C107.264 17.1992 107.944 17.3961 108.318 17.79C108.712 18.1838 108.908 18.6761 108.908 19.2668V20.1233C108.908 20.6944 108.712 21.1867 108.318 21.6002C107.944 21.994 107.264 22.1909 106.28 22.1909ZM99.25 35.9845H104.094V27.537H99.25V24.1403H108.465V35.9845H112.955V39.3812H99.25V35.9845Z" fill="#003C51"/>
<path d="M80.7109 39.3854V35.7524L89.188 27.5412H81.0063V24.1445H94.2387V27.7775L85.7617 35.9887H94.5341V39.3854H80.7109Z" fill="#003C51"/>
<g clip-path="url(#clip0_247_5038)">
<path d="M33.4929 5.76665L11.0918 0.949219L11.6595 11.3583L33.4929 16.6489V5.76665Z" fill="#23CB8D"/>
<path d="M37.5547 59.5288V49.4638L58.1218 42.8398V51.8725L37.5547 59.5288Z" fill="#23CB8D"/>
<path d="M36.7227 15.9578V4.81743L60.3028 0V4.81743L44.6264 32.0876L36.7227 33.8941V27.3131L45.3687 13.7641L36.7227 15.9578Z" fill="#23CB8D"/>
<path d="M34.1467 60.3053V50.0253L24.8019 47.2294L32.9676 36.4762V31.0136L26.4176 29.1641L11.0469 49.251V53.7674L34.1467 60.3053Z" fill="#23CB8D"/>
</g>
<defs>
<clipPath id="clip0_247_5038">
<rect width="60.304" height="60.304" fill="white"/>
</clipPath>
</defs>
</svg>
