<svg width="32" height="32" viewBox="0 0 32 32" fill="none" xmlns="http://www.w3.org/2000/svg">
<path d="M16 1.33398L4 6.66732V14.6673C4 22.0673 9.12 28.9873 16 30.6673C22.88 28.9873 28 22.0673 28 14.6673V6.66732L16 1.33398ZM16 6.66732C17.0609 6.66732 18.0783 7.08875 18.8284 7.83889C19.5786 8.58904 20 9.60645 20 10.6673C20 11.7282 19.5786 12.7456 18.8284 13.4957C18.0783 14.2459 17.0609 14.6673 16 14.6673C14.9391 14.6673 13.9217 14.2459 13.1716 13.4957C12.4214 12.7456 12 11.7282 12 10.6673C12 9.60645 12.4214 8.58904 13.1716 7.83889C13.9217 7.08875 14.9391 6.66732 16 6.66732ZM22.84 22.6673C21.2267 25.134 18.8133 26.9873 16 27.894C13.1867 26.9873 10.7733 25.134 9.16 22.6673C8.70667 22.0007 8.32 21.334 8 20.6273C8 18.4273 11.6133 16.6273 16 16.6273C20.3867 16.6273 24 18.3873 24 20.6273C23.68 21.334 23.2933 22.0007 22.84 22.6673Z" fill="#23CB8D"/>
</svg>
